<?xml version="1.0" encoding="UTF-8" standalone="no"?>
<svg
   xmlns:dc="http://purl.org/dc/elements/1.1/"
   xmlns:cc="http://creativecommons.org/ns#"
   xmlns:rdf="http://www.w3.org/1999/02/22-rdf-syntax-ns#"
   xmlns:svg="http://www.w3.org/2000/svg"
   xmlns="http://www.w3.org/2000/svg"
   xmlns:sodipodi="http://sodipodi.sourceforge.net/DTD/sodipodi-0.dtd"
   xmlns:inkscape="http://www.inkscape.org/namespaces/inkscape"
   sodipodi:docname="UK Research and Innovation logo.svg"
   inkscape:version="1.0 (4035a4fb49, 2020-05-01)"
   id="svg1194"
   version="1.1"
   viewBox="0 0 132.82083 39.317745"
   height="148.60249"
   width="502">
  <defs
     id="defs1188">
    <clipPath
       id="clip1">
      <path
         d="m 218,81 h 7.875 v 9 H 218 Z m 0,0"
         id="path216" />
    </clipPath>
    <clipPath
       id="clip2">
      <path
         d="M 56.691406,51.023438 H 107 V 100.62891 H 56.691406 Z m 0,0"
         id="path219" />
    </clipPath>
  </defs>
  <sodipodi:namedview
     inkscape:window-maximized="1"
     inkscape:window-y="-9"
     inkscape:window-x="-9"
     inkscape:window-height="1001"
     inkscape:window-width="1920"
     fit-margin-bottom="1"
     fit-margin-right="1"
     fit-margin-left="1"
     fit-margin-top="1"
     units="px"
     showgrid="false"
     inkscape:document-rotation="0"
     inkscape:current-layer="layer1"
     inkscape:document-units="mm"
     inkscape:cy="114.7499"
     inkscape:cx="69.230419"
     inkscape:zoom="1.4142136"
     inkscape:pageshadow="2"
     inkscape:pageopacity="0.0"
     borderopacity="1.0"
     bordercolor="#666666"
     pagecolor="#ffffff"
     id="base" />
  <metadata
     id="metadata1191">
    <rdf:RDF>
      <cc:Work
         rdf:about="">
        <dc:format>image/svg+xml</dc:format>
        <dc:type
           rdf:resource="http://purl.org/dc/dcmitype/StillImage" />
        <dc:title></dc:title>
      </cc:Work>
    </rdf:RDF>
  </metadata>
  <g
     transform="translate(-17.518308,-45.414133)"
     id="layer1"
     inkscape:groupmode="layer"
     inkscape:label="Layer 1">
    <g
       transform="matrix(0.78194146,0,0,0.78194146,-26.546469,5.7813751)"
       id="g1146">
      <path
         style="fill:#1e1e5c;fill-opacity:1;fill-rule:nonzero;stroke:none"
         d="m 126.16016,68.386719 c 0,3.460937 -2.04688,4.910156 -4.52735,4.910156 -2.48047,0 -4.55468,-1.449219 -4.55468,-4.910156 v -6.441406 h 2.23828 v 6.28125 c 0,1.835937 0.77343,2.945312 2.3164,2.945312 1.54688,0 2.28907,-1.109375 2.28907,-2.945312 v -6.28125 h 2.23828"
         id="path224" />
      <path
         style="fill:#1e1e5c;fill-opacity:1;fill-rule:nonzero;stroke:none"
         d="m 131.21484,68.46875 h -0.93359 v 4.75 h -2.16016 V 61.945313 h 2.16016 V 66.375 h 0.89844 l 2.85156,-4.429687 h 2.46484 l -3.51172,5.476562 3.99219,5.796875 H 134.5"
         id="path226" />
      <path
         style="fill:#1e1e5c;fill-opacity:1;fill-rule:nonzero;stroke:none"
         d="m 144.66016,67.082031 h 1.76953 c 0.91797,0 1.53125,-0.707031 1.53125,-1.640625 0,-0.933593 -0.62891,-1.484375 -1.53125,-1.484375 h -1.76953 m 3.73437,9.261719 -2.39844,-4.140625 h -1.33593 v 4.140625 h -2.04688 V 61.945313 h 3.97656 c 1.85157,0 3.4961,1.242187 3.4961,3.460937 0,1.546875 -0.8711,2.722656 -2.03125,3.285156 l 2.72265,4.527344"
         id="path228" />
      <path
         style="fill:#1e1e5c;fill-opacity:1;fill-rule:nonzero;stroke:none"
         d="m 153.25781,68.175781 h 3.6211 c -0.24219,-0.949218 -0.90235,-1.335937 -1.70704,-1.335937 -0.88281,0 -1.59375,0.5 -1.91406,1.335937 m 5.7461,1.628907 h -5.875 c 0.24218,1.222656 1.23828,1.675781 2.10937,1.675781 1.09375,0 1.5625,-0.679688 1.5625,-0.679688 h 2.02734 c -0.61328,1.613282 -2.07812,2.496094 -3.65625,2.496094 -2.17187,0 -4.07421,-1.65625 -4.07421,-4.167969 0,-2.496093 1.88671,-4.042968 4.01171,-4.042968 2.0625,0 4.15235,1.433593 3.89454,4.71875"
         id="path230" />
      <path
         style="fill:#1e1e5c;fill-opacity:1;fill-rule:nonzero;stroke:none"
         d="m 163.40234,66.792969 c -0.67968,0 -0.96875,0.335937 -0.96875,0.675781 0,0.546875 0.72657,0.710938 1.21094,0.804688 1.42969,0.304687 2.88281,0.742187 2.88281,2.449218 0,1.65625 -1.37109,2.574219 -3.02734,2.574219 -1.85547,0 -3.28516,-1.125 -3.38281,-2.832031 h 1.98047 c 0.0469,0.480469 0.37109,1.109375 1.35156,1.109375 0.82031,0 1.01562,-0.433594 1.01562,-0.773438 0,-0.59375 -0.5625,-0.773437 -1.11328,-0.898437 -0.94922,-0.210938 -2.99219,-0.597656 -2.99219,-2.433594 0,-1.578125 1.51172,-2.382812 3.07422,-2.382812 1.80469,0 2.9961,1.09375 3.09375,2.449218 h -1.98437 c -0.0625,-0.273437 -0.32031,-0.742187 -1.14063,-0.742187"
         id="path232" />
      <path
         style="fill:#1e1e5c;fill-opacity:1;fill-rule:nonzero;stroke:none"
         d="m 169.67969,68.175781 h 3.625 c -0.24219,-0.949218 -0.90235,-1.335937 -1.70703,-1.335937 -0.88672,0 -1.59375,0.5 -1.91797,1.335937 m 5.75,1.628907 h -5.87891 c 0.24219,1.222656 1.24219,1.675781 2.10938,1.675781 1.09765,0 1.5625,-0.679688 1.5625,-0.679688 H 175.25 c -0.60938,1.613282 -2.07422,2.496094 -3.65234,2.496094 -2.17579,0 -4.07422,-1.65625 -4.07422,-4.167969 0,-2.496093 1.88281,-4.042968 4.00781,-4.042968 2.0625,0 4.15625,1.433593 3.89844,4.71875"
         id="path234" />
      <path
         style="fill:#1e1e5c;fill-opacity:1;fill-rule:nonzero;stroke:none"
         d="m 181.43359,69.835938 v -0.160157 c -1.46484,0.160157 -2.91406,0.335938 -2.91406,1.175782 0,1.222656 2.78516,1.125 2.91406,-1.015625 m 2.9336,1.835937 v 1.546875 h -0.48438 c -0.93359,0 -1.59375,-0.339844 -1.86719,-1.03125 -0.48437,0.660156 -1.28906,1.109375 -2.54687,1.109375 -1.81641,0 -2.97656,-0.933594 -2.97656,-2.382812 0,-2.511719 3.42968,-2.734375 4.97265,-2.816407 -0.0312,-0.933593 -0.54687,-1.273437 -1.36718,-1.273437 -1.14454,0 -1.22266,0.691406 -1.22266,0.691406 h -2.01172 c 0.14453,-1.429687 1.31641,-2.429687 3.28516,-2.429687 1.91406,0 3.26562,0.949218 3.26562,3.285156 v 2.140625 c 0,0.933594 0.33985,1.160156 0.95313,1.160156"
         id="path236" />
      <path
         style="fill:#1e1e5c;fill-opacity:1;fill-rule:nonzero;stroke:none"
         d="m 190.71094,65.085938 v 2.0625 c -0.16407,-0.03516 -0.4375,-0.06641 -0.71094,-0.06641 -1.125,0 -2.30078,0.578125 -2.30078,2.0625 v 4.074219 h -2.14453 v -8.050781 h 1.64453 l 0.28906,0.882812 h 0.25781 c 0.35547,-0.351562 1.14453,-0.964843 2.46485,-0.964843"
         id="path238" />
      <path
         style="fill:#1e1e5c;fill-opacity:1;fill-rule:nonzero;stroke:none"
         d="m 195.26562,73.296875 c -2.23828,0 -4.07421,-1.722656 -4.07421,-4.089844 0,-2.398437 1.89843,-4.121093 4.15625,-4.121093 1.83593,0 3.39453,1.144531 3.84765,3.027343 h -2.1914 c -0.33594,-0.660156 -0.9336,-1.078125 -1.70704,-1.078125 -1.125,0 -2.02734,0.902344 -2.02734,2.15625 0,1.257813 0.90234,2.160157 2.02734,2.160157 0.72657,0 1.28907,-0.371094 1.64454,-0.96875 h 2.20312 c -0.51562,1.917968 -2.17187,2.914062 -3.87891,2.914062"
         id="path240" />
      <path
         style="fill:#1e1e5c;fill-opacity:1;fill-rule:nonzero;stroke:none"
         d="m 208.19531,68.855469 v 4.363281 h -2.15625 v -3.882812 c 0,-0.789063 0.12891,-2.382813 -1.32031,-2.382813 -0.71094,0 -2.07813,0.371094 -2.07813,2.480469 v 3.785156 h -2.16015 V 61.785156 h 2.04687 v 4.21875 h 0.27344 c 0.38672,-0.402343 1.12891,-0.917968 2.32031,-0.917968 2.07422,0 3.07422,1.546875 3.07422,3.769531"
         id="path242" />
      <path
         style="fill:#1e1e5c;fill-opacity:1;fill-rule:nonzero;stroke:none"
         d="m 121.85938,86.332031 v -0.164062 c -1.46485,0.164062 -2.91407,0.339844 -2.91407,1.175781 0,1.222656 2.78516,1.128906 2.91407,-1.011719 m 2.92968,1.832032 v 1.546875 h -0.48047 c -0.93359,0 -1.59765,-0.335938 -1.86718,-1.03125 -0.48438,0.660156 -1.28907,1.113281 -2.54688,1.113281 -1.82031,0 -2.97656,-0.933594 -2.97656,-2.382813 0,-2.511718 3.42969,-2.738281 4.97266,-2.820312 -0.0312,-0.933594 -0.54688,-1.269531 -1.36719,-1.269531 -1.14453,0 -1.22266,0.691406 -1.22266,0.691406 h -2.01562 c 0.14453,-1.433594 1.32031,-2.429688 3.28515,-2.429688 1.91797,0 3.26953,0.949219 3.26953,3.28125 v 2.144532 c 0,0.933593 0.33985,1.15625 0.94922,1.15625"
         id="path244" />
      <path
         style="fill:#1e1e5c;fill-opacity:1;fill-rule:nonzero;stroke:none"
         d="m 133.71094,85.347656 v 4.363282 h -2.14063 v -3.878907 c 0,-0.273437 0.19141,-2.304687 -1.35547,-2.382812 -0.7539,-0.05078 -2.10937,0.371094 -2.10937,2.480469 v 3.78125 h -2.125 v -8.050782 h 1.64453 l 0.27344,0.984375 h 0.27343 c 0.33594,-0.40625 1.09375,-1.066406 2.44532,-1.066406 2.07812,0 3.09375,1.546875 3.09375,3.769531"
         id="path246" />
      <path
         style="fill:#1e1e5c;fill-opacity:1;fill-rule:nonzero;stroke:none"
         d="m 140.92187,85.6875 c 0,-1.335937 -0.72265,-2.128906 -1.76953,-2.128906 -0.98047,0 -1.96484,0.710937 -1.96484,2.128906 0,1.414063 0.98437,2.125 1.96484,2.125 1.04688,0 1.76953,-0.789062 1.76953,-2.125 m 2.01563,-7.410156 v 11.433594 h -1.57813 L 141.13281,88.9375 h -0.24219 c -0.5,0.546875 -1.17578,0.855469 -2.04296,0.855469 -2.04688,0 -3.75391,-1.675781 -3.75391,-4.105469 0,-2.433594 1.70703,-4.105469 3.75391,-4.105469 0.83593,0 1.5625,0.289063 2.07421,0.867188 v -4.171875"
         id="path248" />
      <path
         style="fill:#1e1e5c;fill-opacity:1;fill-rule:nonzero;stroke:none"
         d="m 151.45312,89.710938 h -2.23828 V 78.441406 h 2.23828 z m 0,0"
         id="path250" />
      <path
         style="fill:#1e1e5c;fill-opacity:1;fill-rule:nonzero;stroke:none"
         d="m 161.17969,85.347656 v 4.363282 h -2.14063 v -3.878907 c 0,-0.273437 0.19141,-2.304687 -1.35547,-2.382812 -0.75781,-0.05078 -2.10937,0.371094 -2.10937,2.480469 v 3.78125 h -2.125 v -8.050782 h 1.64062 l 0.27735,0.984375 h 0.27343 c 0.33594,-0.40625 1.09375,-1.066406 2.44532,-1.066406 2.07812,0 3.09375,1.546875 3.09375,3.769531"
         id="path252" />
      <path
         style="fill:#1e1e5c;fill-opacity:1;fill-rule:nonzero;stroke:none"
         d="m 170.64453,85.347656 v 4.363282 h -2.14062 v -3.878907 c 0,-0.273437 0.19531,-2.304687 -1.35157,-2.382812 -0.75781,-0.05078 -2.10937,0.371094 -2.10937,2.480469 v 3.78125 h -2.125 v -8.050782 h 1.64062 l 0.27735,0.984375 h 0.26953 c 0.33984,-0.40625 1.09765,-1.066406 2.44922,-1.066406 2.07812,0 3.08984,1.546875 3.08984,3.769531"
         id="path254" />
      <path
         style="fill:#1e1e5c;fill-opacity:1;fill-rule:nonzero;stroke:none"
         d="m 178.14844,85.6875 c 0,-1.257812 -0.74219,-2.242187 -1.96485,-2.242187 -1.22265,0 -2.04297,0.984375 -2.04297,2.242187 0,1.253906 0.82032,2.238281 2.04297,2.238281 1.22266,0 1.96485,-0.984375 1.96485,-2.238281 m -6.11719,0.01563 c 0,-2.578125 1.99609,-4.121094 4.15234,-4.121094 2.17578,0 4.07422,1.558594 4.07422,4.089844 0,2.558594 -1.96484,4.121094 -4.13672,4.121094 -2.1914,0 -4.08984,-1.5625 -4.08984,-4.089844"
         id="path256" />
      <path
         style="fill:#1e1e5c;fill-opacity:1;fill-rule:nonzero;stroke:none"
         d="m 189.05078,81.660156 -2.60937,8.050782 h -3.125 l -2.60938,-8.050782 h 2.14453 l 1.86719,5.925782 h 0.32031 l 1.8711,-5.925782"
         id="path258" />
      <path
         style="fill:#1e1e5c;fill-opacity:1;fill-rule:nonzero;stroke:none"
         d="m 194.70312,86.332031 v -0.164062 c -1.46484,0.164062 -2.91406,0.339844 -2.91406,1.175781 0,1.222656 2.78516,1.128906 2.91406,-1.011719 m 2.92969,1.832032 v 1.546875 h -0.48437 c -0.9336,0 -1.59375,-0.335938 -1.86719,-1.03125 -0.48438,0.660156 -1.28906,1.113281 -2.54297,1.113281 -1.82031,0 -2.98047,-0.933594 -2.98047,-2.382813 0,-2.511718 3.42969,-2.738281 4.97656,-2.820312 -0.0312,-0.933594 -0.54687,-1.269531 -1.36718,-1.269531 -1.14453,0 -1.22657,0.691406 -1.22657,0.691406 h -2.01171 c 0.14453,-1.433594 1.32031,-2.429688 3.28515,-2.429688 1.91406,0 3.26563,0.949219 3.26563,3.28125 v 2.144532 c 0,0.933593 0.33984,1.15625 0.95312,1.15625"
         id="path260" />
      <path
         style="fill:#1e1e5c;fill-opacity:1;fill-rule:nonzero;stroke:none"
         d="m 204.10547,89.117188 c 0,0 -0.67969,0.675781 -1.91797,0.675781 -1.54297,0 -2.88281,-1.046875 -2.88281,-2.675781 v -3.734375 h -1.60938 V 81.804688 H 198.5 c 0.54687,0 0.91797,-0.367188 0.91797,-0.949219 v -1.609375 h 1.94922 v 2.414062 h 2.03125 v 1.722657 h -2.03125 v 3.609375 c 0,0.546875 0.44922,0.964843 1.03125,0.964843 0.48047,0 0.93359,-0.273437 0.93359,-0.273437"
         id="path262" />
      <path
         style="fill:#1e1e5c;fill-opacity:1;fill-rule:nonzero;stroke:none"
         d="m 207.05078,89.710938 h -2.0625 v -8.050782 h 2.0625 z M 204.63672,79.40625 c 0,-0.773437 0.6289,-1.367187 1.38281,-1.367187 0.74219,0 1.35156,0.59375 1.35156,1.367187 0,0.726563 -0.60937,1.351563 -1.35156,1.351563 -0.75391,0 -1.38281,-0.625 -1.38281,-1.351563"
         id="path264" />
      <path
         style="fill:#1e1e5c;fill-opacity:1;fill-rule:nonzero;stroke:none"
         d="m 214.66797,85.6875 c 0,-1.257812 -0.74219,-2.242187 -1.96485,-2.242187 -1.22265,0 -2.04687,0.984375 -2.04687,2.242187 0,1.253906 0.82422,2.238281 2.04687,2.238281 1.22266,0 1.96485,-0.984375 1.96485,-2.238281 m -6.1211,0.01563 c 0,-2.578125 1.9961,-4.121094 4.15625,-4.121094 2.17188,0 4.07422,1.558594 4.07422,4.089844 0,2.558594 -1.96484,4.121094 -4.14062,4.121094 -2.1875,0 -4.08985,-1.5625 -4.08985,-4.089844"
         id="path266" />
      <g
         clip-path="url(#clip1)"
         clip-rule="nonzero"
         id="g270">
        <path
           style="fill:#1e1e5c;fill-opacity:1;fill-rule:nonzero;stroke:none"
           d="m 225.875,85.347656 v 4.363282 h -2.14063 v -3.878907 c 0,-0.273437 0.19141,-2.304687 -1.35546,-2.382812 -0.75782,-0.05078 -2.10938,0.371094 -2.10938,2.480469 v 3.78125 h -2.125 v -8.050782 h 1.64063 l 0.27734,0.984375 h 0.27344 c 0.33593,-0.40625 1.09375,-1.066406 2.44531,-1.066406 2.07812,0 3.09375,1.546875 3.09375,3.769531"
           id="path268" />
      </g>
      <g
         clip-path="url(#clip2)"
         clip-rule="nonzero"
         id="g274">
        <path
           style="fill:#1e1e5c;fill-opacity:1;fill-rule:nonzero;stroke:none"
           d="M 106.30078,100.62891 H 56.691406 V 51.023438 h 49.609374 z m 0,0"
           id="path272" />
      </g>
      <path
         style="fill:#ffffff;fill-opacity:1;fill-rule:nonzero;stroke:none"
         d="M 95.054688,75.828125 H 87.28125 v -8.304687 m 0.996094,23.742187 h -6.78125 v 2.710938 L 76.722656,87.71875 c 3.632813,-0.667969 5.511719,-2.546875 5.511719,-5.816406 0,-0.808594 -0.117187,-1.53125 -0.34375,-2.167969 h 6.386719 m -20.339844,0 h 5.292969 c 2.171875,0 3.054687,0.84375 3.054687,2.167969 0,1.324219 -0.882812,2.191406 -3.054687,2.191406 H 67.9375 M 81.496094,69.910156 v 8.972657 c -1.230469,-2.078125 -4.0625,-3.046875 -8.265625,-3.054688 3.75,-0.382812 7.214844,-2.40625 8.265625,-5.917969 M 100.83984,56.484375 h -5.785152 l -7.773438,8.28125 v -8.28125 H 76.042969 v 10.992188 c 0,2.351562 -1.742188,3.71875 -4.054688,3.71875 -2.308593,0 -4.050781,-1.367188 -4.050781,-3.71875 V 56.484375 h -5.785156 v 11.074219 c 0,4.960937 4.003906,7.808594 8.523437,8.269531 h -8.523437 v 19.34375 H 67.9375 V 88 h 2.523438 l 5.347656,7.171875 h 25.031246 v -3.90625 h -6.781246 v -11.53125 h 6.781246 v -5.105469 l -8.289059,-8.488281 8.289059,-8.460937"
         id="path276" />
    </g>
  </g>
</svg>
